HIERARCHY
ROOT Hips
{
	OFFSET 0.00000 0.00000 0.00000
	CHANNELS 6 Xposition Yposition Zposition Zrotation Yrotation Xrotation 
	JOINT LHipJoint
	{
		OFFSET 0 0 0
		CHANNELS 3 Zrotation Yrotation Xrotation
		JOINT LeftUpLeg
		{
			OFFSET 1.61328 -1.70571 0.84375
			CHANNELS 3 Zrotation Yrotation Xrotation
			JOINT LeftLeg
			{
				OFFSET 2.32400 -6.38513 0.00000
				CHANNELS 3 Zrotation Yrotation Xrotation
				JOINT LeftFoot
				{
					OFFSET 2.58843 -7.11166 0.00000
					CHANNELS 3 Zrotation Yrotation Xrotation
					JOINT LeftToeBase
					{
						OFFSET 0.17200 -0.47257 2.47970
						CHANNELS 3 Zrotation Yrotation Xrotation
						End Site
						{
							OFFSET 0.00000 -0.00000 1.26912
						}
					}
				}
			}
		}
	}
	JOINT RHipJoint
	{
		OFFSET 0 0 0
		CHANNELS 3 Zrotation Yrotation Xrotation
		JOINT RightUpLeg
		{
			OFFSET -1.49930 -1.70570 0.84375
			CHANNELS 3 Zrotation Yrotation Xrotation
			JOINT RightLeg
			{
				OFFSET -2.30458 -6.33178 0.00000
				CHANNELS 3 Zrotation Yrotation Xrotation
				JOINT RightFoot
				{
					OFFSET -2.62261 -7.20556 0.00000
					CHANNELS 3 Zrotation Yrotation Xrotation
					JOINT RightToeBase
					{
						OFFSET -0.18709 -0.51403 2.51340
						CHANNELS 3 Zrotation Yrotation Xrotation
						End Site
						{
							OFFSET -0.00000 -0.00000 1.28858
						}
					}
				}
			}
		}
	}
	JOINT LowerBack
	{
		OFFSET 0 0 0
		CHANNELS 3 Zrotation Yrotation Xrotation
		JOINT Spine
		{
			OFFSET -0.03798 2.19274 -0.19881
			CHANNELS 3 Zrotation Yrotation Xrotation
			JOINT Spine1
			{
				OFFSET -0.00024 2.19460 0.05248
				CHANNELS 3 Zrotation Yrotation Xrotation
				JOINT Neck
				{
					OFFSET 0 0 0
					CHANNELS 3 Zrotation Yrotation Xrotation
					JOINT Neck1
					{
						OFFSET -0.00746 1.82323 0.17286
						CHANNELS 3 Zrotation Yrotation Xrotation
						JOINT Head
						{
							OFFSET 0.11826 1.82121 -0.27841
							CHANNELS 3 Zrotation Yrotation Xrotation
							End Site
							{
								OFFSET 0.03496 1.85543 -0.11495
							}
						}
					}
				}
				JOINT LeftShoulder
				{
					OFFSET 0 0 0
					CHANNELS 3 Zrotation Yrotation Xrotation
					JOINT LeftArm
					{
						OFFSET 3.71926 0.78840 0.25473
						CHANNELS 3 Zrotation Yrotation Xrotation
						JOINT LeftForeArm
						{
							OFFSET 5.37587 -0.00000 0.00000
							CHANNELS 3 Zrotation Yrotation Xrotation
							JOINT LeftHand
							{
								OFFSET 3.35977 -0.00000 0.00000
								CHANNELS 3 Zrotation Yrotation Xrotation
								JOINT LeftFingerBase
								{
									OFFSET 0 0 0
									CHANNELS 3 Zrotation Yrotation Xrotation
									JOINT LeftHandIndex1
									{
										OFFSET 0.56186 -0.00000 0.00000
										CHANNELS 3 Zrotation Yrotation Xrotation
										End Site
										{
											OFFSET 0.45299 -0.00000 0.00000
										}
									}
								}
								JOINT LThumb
								{
									OFFSET 0 0 0
									CHANNELS 3 Zrotation Yrotation Xrotation
									End Site
									{
										OFFSET 0.45990 -0.00000 0.45990
									}
								}
							}
						}
					}
				}
				JOINT RightShoulder
				{
					OFFSET 0 0 0
					CHANNELS 3 Zrotation Yrotation Xrotation
					JOINT RightArm
					{
						OFFSET -3.65136 0.56074 0.01624
						CHANNELS 3 Zrotation Yrotation Xrotation
						JOINT RightForeArm
						{
							OFFSET -5.22819 -0.00000 0.00000
							CHANNELS 3 Zrotation Yrotation Xrotation
							JOINT RightHand
							{
								OFFSET -3.40764 -0.00000 0.00000
								CHANNELS 3 Zrotation Yrotation Xrotation
								JOINT RightFingerBase
								{
									OFFSET 0 0 0
									CHANNELS 3 Zrotation Yrotation Xrotation
									JOINT RightHandIndex1
									{
										OFFSET -0.58325 -0.00000 0.00000
										CHANNELS 3 Zrotation Yrotation Xrotation
										End Site
										{
											OFFSET -0.47024 -0.00000 0.00000
										}
									}
								}
								JOINT RThumb
								{
									OFFSET 0 0 0
									CHANNELS 3 Zrotation Yrotation Xrotation
									End Site
									{
										OFFSET -0.47742 -0.00000 0.47742
									}
								}
							}
						}
					}
				}
			}
		}
	}
}
MOTION
Frames: 12
Frame Time: .0083333
38.1305 16.8742 -6.6066 549.5090 87.5588 912.5460 0.0000 0.0000 0.0000 -24.7804 6.0912 -16.4127 1.3555 7.3698 20.8157 0.2264 1.4897 -9.6600 0.0842 -1.8722 -5.1527 0.0000 0.0000 0.0000 19.9475 4.3166 -20.3386 -12.7414 -18.6868 68.3203 0.1737 -8.1937 -6.8242 -0.3669 -3.8911 10.7705 -0.7696 2.2864 -0.1104 -2.4179 3.4307 6.5107 -1.8723 1.8171 6.9486 5.8303 8.1336 -4.9584 -0.3293 10.8762 17.0642 -0.2587 5.7075 6.3430 0.0000 -0.0000 0.0000 -79.7637 -2.9279 45.8340 22.0733 -33.0598 -6.6258 -0.0000 0.0000 -22.0932 27.6681 17.0780 8.7533 -7.1250 0.0000 -0.0000 -0.2230 49.1106 -0.0226 0.0000 -0.0000 0.0000 88.9826 1.8822 39.3773 -27.5864 38.7327 -9.8638 0.0000 -0.0000 -0.7932 -19.1451 2.2161 -0.7691 7.1250 -0.0000 -0.0000 5.7241 -27.6202 2.4293
38.2158 16.8619 -6.6127 549.4620 87.7002 912.4490 0.0000 0.0000 0.0000 -24.7627 5.9880 -16.1465 1.4021 7.4903 21.1764 0.2570 1.6265 -10.3119 0.0809 -1.8345 -5.0485 0.0000 0.0000 0.0000 19.8239 5.1089 -21.1460 -12.7231 -18.6799 68.2633 0.0717 -7.0088 -8.0491 -0.2478 -3.2031 8.8446 -0.9040 2.1963 -0.0308 -2.4307 3.3197 6.5741 -1.8199 1.7568 6.9604 5.5163 7.7895 -5.1635 -0.0012 10.3849 17.3705 -0.1317 5.4798 6.4243 -0.0000 0.0000 0.0000 -80.2114 -3.7817 45.8243 22.4449 -33.4761 -6.8296 -0.0000 0.0000 -22.0919 27.5658 16.9535 8.6552 -7.1250 0.0000 -0.0000 -0.3033 48.9566 -0.0296 -0.0000 0.0000 0.0000 88.9161 1.9479 39.4475 -27.5838 38.7302 -9.8622 0.0000 -0.0000 -0.8163 -19.0844 2.2101 -0.7644 7.1250 -0.0000 -0.0000 5.7710 -27.6271 2.4484
38.3009 16.8494 -6.6183 549.6770 87.8409 912.6310 0.0000 0.0000 0.0000 -24.7383 5.8935 -15.9077 1.4500 7.6117 21.5407 0.2894 1.7461 -10.9530 0.0790 -1.8128 -4.9885 0.0000 0.0000 0.0000 19.7185 5.8901 -21.9487 -12.6533 -18.6534 68.0452 -0.0375 -5.9204 -9.4227 -0.1477 -2.4769 6.8257 -1.0444 2.0977 0.0383 -2.4325 3.1959 6.6288 -1.7530 1.6889 6.9677 5.2034 7.4588 -5.3588 0.3075 9.9139 17.6528 -0.0099 5.2606 6.5013 0.0000 -0.0000 0.0000 -80.6372 -4.5651 45.8465 22.9110 -33.9913 -7.0885 -0.0000 0.0000 -22.1229 27.4320 16.8737 8.5679 -7.1250 0.0000 -0.0000 -0.4216 48.8471 -0.0400 0.0000 -0.0000 0.0000 88.8331 2.0043 39.5180 -27.5909 38.7368 -9.8666 0.0000 -0.0000 -0.8521 -19.0191 2.1936 -0.7559 7.1250 -0.0000 -0.0000 5.8219 -27.6452 2.4677
38.3857 16.8367 -6.6234 550.0490 87.9777 912.9880 0.0000 0.0000 0.0000 -24.7128 5.7993 -15.6898 1.4983 7.7318 21.9025 0.3232 1.8560 -11.5803 0.0792 -1.8150 -4.9946 0.0000 0.0000 0.0000 19.6251 6.6535 -22.7470 -12.5344 -18.6075 67.6731 -0.1561 -4.9666 -10.9220 -0.0759 -1.7778 4.8921 -1.1933 1.9908 0.0979 -2.4255 3.0597 6.6735 -1.6726 1.6137 6.9693 4.8973 7.1438 -5.5433 0.5956 9.4665 17.9135 0.1057 5.0517 6.5746 -0.0000 0.0000 0.0000 -81.0358 -5.2699 45.9107 23.4783 -34.6077 -7.4081 -0.0000 0.0000 -22.1909 27.3105 16.8343 8.5052 -7.1250 0.0000 -0.0000 -0.5342 48.7842 -0.0499 -0.0000 0.0000 0.0000 88.7380 2.0508 39.5841 -27.6023 38.7475 -9.8738 0.0000 -0.0000 -0.8940 -18.9626 2.1698 -0.7453 7.1250 -0.0000 -0.0000 5.8664 -27.6708 2.4832
38.4706 16.8238 -6.6280 550.3630 88.1091 913.3070 0.0000 0.0000 0.0000 -24.6950 5.7009 -15.4913 1.5468 7.8503 22.2604 0.3577 1.9635 -12.1882 0.0809 -1.8344 -5.0481 0.0000 0.0000 0.0000 19.5330 7.3998 -23.5415 -12.3685 -18.5421 67.1522 -0.2831 -4.1966 -12.4875 -0.0351 -1.2090 3.3241 -1.3530 1.8767 0.1486 -2.4135 2.9129 6.7072 -1.5811 1.5319 6.9640 4.6083 6.8430 -5.7143 0.8567 9.0409 18.1558 0.2113 4.8523 6.6451 -0.0000 -0.0000 0.0000 -81.3937 -5.8881 46.0426 24.1532 -35.3258 -7.7949 -0.0000 0.0000 -22.3065 27.2246 16.8226 8.4687 -7.1250 0.0000 -0.0000 -0.6164 48.7575 -0.0571 -0.0000 -0.0000 0.0000 88.6341 2.0894 39.6391 -27.6117 38.7563 -9.8796 0.0000 -0.0000 -0.9358 -18.9227 2.1472 -0.7359 7.1250 -0.0000 -0.0000 5.8981 -27.6949 2.4934
38.5552 16.8104 -6.6321 550.6160 88.2323 913.5840 0.0000 0.0000 0.0000 -24.6837 5.5880 -15.3084 1.5953 7.9668 22.6132 0.3930 2.0721 -12.7818 0.0837 -1.8665 -5.1369 0.0000 0.0000 0.0000 19.4391 8.1205 -24.3393 -12.1592 -18.4571 66.4925 -0.4152 -3.6333 -14.0528 -0.0149 -0.7880 2.1656 -1.5209 1.7540 0.1926 -2.3959 2.7538 6.7312 -1.4797 1.4431 6.9521 4.3424 6.5596 -5.8753 1.0794 8.6426 18.3791 0.3027 4.6643 6.7137 0.0000 0.0000 0.0000 -81.7086 -6.4307 46.2395 24.9349 -36.1374 -8.2515 -0.0000 0.0000 -22.4900 27.1623 16.8385 8.4541 -7.1250 0.0000 -0.0000 -0.6800 48.7651 -0.0631 0.0000 0.0000 0.0000 88.5214 2.1273 39.6836 -27.6145 38.7589 -9.8814 0.0000 -0.0000 -0.9719 -18.8941 2.1183 -0.7248 7.1250 -0.0000 -0.0000 5.9215 -27.7255 2.4990
38.6398 16.7965 -6.6360 550.7220 88.3479 913.7290 0.0000 0.0000 0.0000 -24.6817 5.4614 -15.1361 1.6436 8.0804 22.9587 0.4284 2.1903 -13.3583 0.0879 -1.9125 -5.2639 0.0000 0.0000 0.0000 19.3387 8.8044 -25.1362 -11.9101 -18.3524 65.7036 -0.5471 -3.2756 -15.5505 -0.0068 -0.5308 1.4586 -1.6906 1.6265 0.2382 -2.3751 2.5869 6.7446 -1.3744 1.3500 6.9287 4.0956 6.2892 -6.0371 1.2718 8.2647 18.6012 0.3833 4.4850 6.7868 0.0000 -0.0000 0.0000 -81.9706 -6.9029 46.5217 25.8172 -37.0277 -8.7773 -0.0000 0.0000 -22.7378 27.1157 16.8350 8.4357 -7.1250 0.0000 -0.0000 -0.7250 48.7537 -0.0671 0.0000 -0.0000 0.0000 88.4031 2.1604 39.7060 -27.6116 38.7562 -9.8796 0.0000 -0.0000 -0.9955 -18.8802 2.0952 -0.7163 7.1250 -0.0000 -0.0000 5.9333 -27.7500 2.5006
38.7241 16.7826 -6.6396 550.6930 88.4514 913.7530 0.0000 0.0000 0.0000 -24.6856 5.3243 -14.9736 1.6908 8.1900 23.2928 0.4650 2.2928 -13.9214 0.0891 -1.9255 -5.2999 0.0000 0.0000 0.0000 19.2336 9.4420 -25.9314 -11.6243 -18.2273 64.7931 -0.6738 -3.1025 -16.9375 -0.0041 -0.4130 1.1349 -1.8579 1.4939 0.2848 -2.3505 2.4119 6.7505 -1.2668 1.2527 6.8976 3.8639 6.0315 -6.2063 1.4352 7.9069 18.8238 0.4543 4.3140 6.8653 0.0000 0.0000 0.0000 -82.1805 -7.3196 46.8782 26.7924 -37.9805 -9.3711 -0.0000 0.0000 -23.0277 27.0640 16.8293 8.4145 -7.1250 0.0000 -0.0000 -0.7746 48.7393 -0.0714 0.0000 0.0000 0.0000 88.2796 2.1936 39.7040 -27.6031 38.7483 -9.8743 0.0000 -0.0000 -1.0021 -18.8889 2.0766 -0.7103 7.1250 -0.0000 -0.0000 5.9275 -27.7694 2.4954
38.8083 16.7690 -6.6433 550.5500 88.5461 913.6720 0.0000 0.0000 0.0000 -24.6960 5.1869 -14.8108 1.7355 8.2920 23.6045 0.5019 2.3860 -14.4644 0.0886 -1.9196 -5.2834 0.0000 0.0000 0.0000 19.1236 10.0213 -26.7185 -11.3058 -18.0815 63.7706 -0.7907 -3.0642 -18.1772 -0.0044 -0.4266 1.1723 -2.0166 1.3589 0.3382 -2.3253 2.2325 6.7498 -1.1636 1.1538 6.8571 3.6188 5.7893 -6.4231 1.6038 7.5695 19.0785 0.5331 4.1526 6.9638 -0.0000 0.0000 0.0000 -82.3344 -7.6997 47.3065 27.8392 -38.9678 -10.0224 -0.0000 0.0000 -23.3340 26.9983 16.8151 8.3843 -7.1250 0.0000 -0.0000 -0.8365 48.7132 -0.0766 -0.0000 0.0000 0.0000 88.1586 2.2227 39.6726 -27.5914 38.7374 -9.8670 0.0000 -0.0000 -0.9889 -18.9255 2.0695 -0.7094 7.1250 -0.0000 -0.0000 5.8997 -27.7766 2.4826
38.8926 16.7563 -6.6471 550.4860 88.6349 913.6760 0.0000 0.0000 0.0000 -24.7078 5.0506 -14.6333 1.7752 8.3813 23.8782 0.5389 2.4718 -14.9855 0.0853 -1.8838 -5.1846 0.0000 0.0000 0.0000 19.0151 10.5323 -27.4910 -10.9575 -17.9142 62.6435 -0.8925 -3.1210 -19.2349 -0.0061 -0.5036 1.3838 -2.1621 1.2237 0.3993 -2.2991 2.0515 6.7439 -1.0667 1.0548 6.8081 3.3624 5.5603 -6.6814 1.7846 7.2486 19.3647 0.6211 3.9997 7.0808 0.0000 0.0000 0.0000 -82.4365 -8.0435 47.7824 28.9586 -39.9839 -10.7341 -0.0000 0.0000 -23.6235 26.9090 16.7804 8.3360 -7.1250 0.0000 -0.0000 -0.9179 48.6610 -0.0829 0.0000 0.0000 0.0000 88.0421 2.2456 39.6125 -27.5809 38.7276 -9.8604 0.0000 -0.0000 -0.9561 -18.9900 2.0714 -0.7127 7.1250 -0.0000 -0.0000 5.8500 -27.7740 2.4618
38.9770 16.7451 -6.6509 550.3730 88.7213 913.6340 0.0000 0.0000 0.0000 -24.7258 4.9288 -14.4321 1.8074 8.4529 24.0982 0.5743 2.5548 -15.4702 0.0812 -1.8382 -5.0586 0.0000 0.0000 0.0000 18.9059 10.9694 -28.2413 -10.5818 -17.7243 61.4159 -0.9778 -3.1979 -20.0918 -0.0092 -0.6203 1.7045 -2.2967 1.0922 0.4681 -2.2743 1.8744 6.7346 -0.9770 0.9586 6.7526 3.1176 5.3419 -6.9588 1.9527 6.9425 19.6599 0.7049 3.8538 7.2071 0.0000 -0.0000 0.0000 -82.4896 -8.3704 48.3017 30.1272 -41.0021 -11.4930 -0.0000 0.0000 -23.8680 26.7997 16.7082 8.2629 -7.1250 0.0000 -0.0000 -1.0123 48.5645 -0.0890 0.0000 -0.0000 0.0000 87.9318 2.2608 39.5229 -27.5731 38.7203 -9.8555 0.0000 -0.0000 -0.9157 -19.0856 2.0803 -0.7196 7.1250 -0.0000 -0.0000 5.7760 -27.7637 2.4318
39.0618 16.7362 -6.6546 550.5710 88.8079 913.8980 0.0000 0.0000 0.0000 -24.7415 4.8259 -14.1949 1.8299 8.5024 24.2509 0.6062 2.6536 -15.9085 0.0786 -1.8084 -4.9764 0.0000 0.0000 0.0000 18.8102 11.3316 -28.9542 -10.1805 -17.5101 60.0900 -1.0446 -3.2495 -20.7342 -0.0123 -0.7155 1.9664 -2.4169 0.9665 0.5456 -2.2476 1.7040 6.7242 -0.8926 0.8665 6.6923 2.8865 5.1328 -7.2363 2.1096 6.6497 19.9484 0.7836 3.7143 7.3340 -0.0000 0.0000 0.0000 -82.5096 -8.6746 48.8340 31.3453 -42.0190 -12.3004 -0.0000 0.0000 -24.0417 26.6750 16.6107 8.1729 -7.1250 0.0000 -0.0000 -1.1171 48.4381 -0.0948 -0.0000 0.0000 0.0000 87.8271 2.2667 39.4061 -27.5687 38.7161 -9.8527 0.0000 -0.0000 -0.8677 -19.2123 2.0922 -0.7289 7.1250 -0.0000 -0.0000 5.6780 -27.7500 2.3920
